<?xml version="1.0" ?><!DOCTYPE svg  PUBLIC '-//W3C//DTD SVG 1.1//EN'  'http://www.w3.org/Graphics/SVG/1.1/DTD/svg11.dtd'><svg style="enable-background:new 0 0 500 500;" version="1.1" viewBox="0 0 500 500" xml:space="preserve" xmlns="http://www.w3.org/2000/svg" xmlns:xlink="http://www.w3.org/1999/xlink"><g id="cart-checked"><g><polygon points="500,250 473.216,279.409 491.536,314.718 458.049,336.172 466.532,375.03 428.619,387.055     426.778,426.778 387.044,428.619 375.02,466.543 336.161,458.049 314.707,491.547 279.409,473.226 250,500 220.581,473.226     185.282,491.547 163.818,458.049 124.959,466.543 112.945,428.619 73.222,426.778 71.371,387.044 33.458,375.021 41.941,336.172     8.453,314.718 26.774,279.409 0,250 26.774,220.591 8.453,185.282 41.941,163.829 33.458,124.97 71.371,112.956 73.222,73.222     112.956,71.381 124.97,33.468 163.829,41.952 185.282,8.463 220.581,26.784 250,0 279.409,26.784 314.718,8.463 336.172,41.962     375.03,33.468 387.044,71.381 426.778,73.232 428.619,112.966 466.532,124.98 458.049,163.839 491.536,185.282 473.216,220.591       " style="fill:#9DD2D8;"/><g id="_x31_8"><g><path d="M317.541,306.701c-9.573,0-17.334,7.768-17.334,17.345c0,9.572,7.761,17.329,17.334,17.329      c9.572,0,17.328-7.757,17.328-17.329C334.869,314.469,327.113,306.701,317.541,306.701z" style="fill:#484B4D;"/><path d="M199.564,306.701c-9.577,0-17.334,7.768-17.334,17.345c0,9.572,7.757,17.329,17.334,17.329      c9.572,0,17.329-7.757,17.329-17.329C216.894,314.469,209.137,306.701,199.564,306.701z" style="fill:#484B4D;"/><path d="M320.893,303.914l22.532-69.778c-0.702,0.036-1.394,0.107-2.106,0.107      c-9.089,0-17.482-2.96-24.332-7.914h-23.016l1.978-23.061h5.143c-0.911-3.418-1.445-6.999-1.445-10.702      c0-1.872,0.168-3.703,0.407-5.514H182.322l-8.271-27.969h-0.127h-18.184h-30.426v14.755h34.79l13.087,44.261l25.248,85.815      H320.893z M279.195,290.772h-34.16l-1.953-22.786h38.061L279.195,290.772z M281.936,258.759h-39.642l-1.984-23.204h43.609      L281.936,258.759z M293.183,235.555h33.493l-6.897,23.204h-28.585L293.183,235.555z M290.405,267.985h26.632l-6.76,22.786      h-21.825L290.405,267.985z M286.682,203.268l-1.973,23.061h-45.187l-1.974-23.061H286.682z M235.779,290.772h-24.76      l-6.328-22.786h29.14L235.779,290.772z M187.119,203.268h41.168l1.974,23.061h-36.326L187.119,203.268z M231.049,235.555      l1.988,23.204h-30.909l-6.454-23.204H231.049z" style="fill:#484B4D;"/></g><g><path d="M374.68,192.495c0,18.697-15.142,33.874-33.844,33.874c-18.708,0-33.865-15.177-33.865-33.874      c0-18.707,15.157-33.864,33.865-33.864C359.538,158.63,374.68,173.788,374.68,192.495z" style="fill:#FC6E51;"/><polygon points="361.211,180.644 357.213,176.402 335.749,194.031 325.933,186.798 321.971,191.061       334.102,205.149 336.232,207.642 338.46,205.231     " style="fill:#F4F8F8;"/></g></g></g></g><g id="Layer_1"/></svg>